<svg width="705" height="631" viewBox="0 0 705 631" fill="none" xmlns="http://www.w3.org/2000/svg">
<path d="M52.3892 210.673H213.587L286.126 283.305H416.427L460.085 237.574H567.55" stroke="#EEEEFF" stroke-width="2" stroke-linecap="round" stroke-linejoin="round"/>
<path d="M125.6 360.644H231.722L412.398 179.737H660.239" stroke="#EEEEFF" stroke-width="2" stroke-linecap="round" stroke-linejoin="round"/>
<ellipse cx="252.543" cy="127.281" rx="32.2395" ry="32.2809" fill="url(#paint0_linear_504_801)"/>
<ellipse cx="107.465" cy="210.673" rx="4.02994" ry="4.03511" fill="#EEEEFF"/>
<path d="M91.3452 209.328L107.465 206.638V214.708L91.3452 212.018V209.328Z" fill="url(#paint1_linear_504_801)"/>
<path d="M201.497 222.778L243.14 264.475" stroke="#EEEEFF" stroke-width="2" stroke-linecap="round" stroke-linejoin="round"/>
<path d="M247.169 268.51L257.916 279.27" stroke="#EEEEFF" stroke-width="2" stroke-linecap="round" stroke-linejoin="round"/>
<path d="M455.383 362.662L497.026 404.359" stroke="#EEEEFF" stroke-width="2" stroke-linecap="round" stroke-linejoin="round"/>
<path d="M501.056 408.393L511.802 419.154" stroke="#EEEEFF" stroke-width="2" stroke-linecap="round" stroke-linejoin="round"/>
<path d="M471.503 254.952H590.386" stroke="#EEEEFF" stroke-width="2" stroke-linecap="round" stroke-linejoin="round"/>
<path d="M596.431 254.952H611.629" stroke="#EEEEFF" stroke-width="2" stroke-linecap="round" stroke-linejoin="round"/>
<path d="M617.924 254.952H649.492" stroke="#EEEEFF" stroke-width="2" stroke-linecap="round" stroke-linejoin="round"/>
<path d="M90.6738 342.823H159.183" stroke="#EEEEFF" stroke-width="2" stroke-linecap="round" stroke-linejoin="round"/>
<path d="M165.228 342.823H180.425" stroke="#EEEEFF" stroke-width="2" stroke-linecap="round" stroke-linejoin="round"/>
<path d="M186.721 342.823H218.289" stroke="#EEEEFF" stroke-width="2" stroke-linecap="round" stroke-linejoin="round"/>
<ellipse cx="518.519" cy="237.574" rx="4.02994" ry="4.03511" fill="#EEEEFF"/>
<path d="M502.399 236.229L518.519 233.539V241.609L502.399 238.919V236.229Z" fill="url(#paint2_linear_504_801)"/>
<ellipse cx="616.581" cy="179.738" rx="4.02994" ry="4.03511" fill="#EEEEFF"/>
<path d="M600.461 178.392L616.581 175.702V183.772L600.461 181.082V178.392Z" fill="url(#paint3_linear_504_801)"/>
<path d="M71.1953 440.674H222.99L324.41 339.124H457.398L513.145 394.943H625.312" stroke="#EEEEFF" stroke-width="2" stroke-linecap="round" stroke-linejoin="round"/>
<ellipse cx="192.094" cy="440.674" rx="4.02994" ry="4.03511" fill="#EEEEFF"/>
<path d="M175.974 439.329L192.094 436.639V444.71L175.974 442.02V439.329Z" fill="url(#paint4_linear_504_801)"/>
<path d="M254.206 145.253C262.656 111.386 328.82 97.8788 360.846 95.3589C413.663 91.2029 409.638 124.086 360.846 145.253C344.949 152.15 334.689 182.548 301.489 191.116C288.629 194.435 243.642 187.588 254.206 145.253Z" fill="url(#paint5_linear_504_801)"/>
<path d="M2.18192 376.247C-5.6451 358.034 9.45702 350.635 17.9865 349.212C62.3895 349.212 94.7515 376.247 117.329 381.938C139.907 387.63 170.764 386.207 211.404 408.261C252.044 430.316 260.323 450.236 282.148 470.868C303.974 491.5 322.036 478.694 352.14 480.828C382.244 482.962 392.78 504.306 352.14 520.669C311.5 537.032 291.932 521.38 260.323 520.669C228.714 519.957 187.321 485.097 170.764 461.619C154.207 438.142 128.618 418.222 94.7515 414.664C60.8847 411.107 11.9657 399.013 2.18192 376.247Z" fill="url(#paint6_linear_504_801)"/>
<path d="M372.903 468.757L454.455 525.433L322.618 551.233L372.903 468.757Z" fill="url(#paint7_linear_504_801)"/>
<path fill-rule="evenodd" clip-rule="evenodd" d="M593.054 446.801C594.149 440.485 600.175 436.17 606.497 437.249C612.818 438.328 617.043 444.393 615.947 450.709C614.852 457.025 608.826 461.341 602.504 460.262C596.182 459.183 591.958 453.118 593.054 446.801ZM603.245 447.576L597.715 446.632L596.712 448.615L602.242 449.559L603.245 447.576ZM611.248 445.346C611.721 445.427 612.308 445.754 612.509 446.401C612.71 447.047 612.573 447.338 612.215 448.099L612.214 448.1C611.856 448.861 610.725 451.134 610.285 451.934C609.844 452.734 609.18 453.355 608.415 453.644L608.347 453.67C607.634 453.941 607.334 454.055 606.394 453.895L596.474 452.202L597.567 450.045L606.897 451.637L609.081 447.32L599.825 445.741L600.919 443.584L611.248 445.346Z" fill="#315EFB"/>
<path d="M554.405 324.636C555.891 312.309 563.197 307.974 566.664 307.348C581.895 311.858 599.727 299.079 613.101 302.837C626.474 306.596 636.876 324.636 643.192 330.65C649.507 336.663 681.827 342.676 670.682 361.468C659.537 380.26 642.449 361.468 616.073 356.207C589.697 350.945 591.554 367.858 579.666 373.119C567.778 378.381 558.491 370.113 554.405 361.468C550.318 352.824 552.547 340.045 554.405 324.636Z" fill="url(#paint8_linear_504_801)"/>
<path d="M532.624 290.03H543.37" stroke="#28BC00" stroke-width="2" stroke-linecap="round" stroke-linejoin="round"/>
<path d="M549.415 300.791H521.206" stroke="#28BC00" stroke-width="2" stroke-linecap="round" stroke-linejoin="round"/>
<path d="M139.033 288.685H157.167" stroke="#28BC00" stroke-width="2" stroke-linecap="round" stroke-linejoin="round"/>
<path d="M171.944 299.446H143.734" stroke="#28BC00" stroke-width="2" stroke-linecap="round" stroke-linejoin="round"/>
<path d="M151.123 183.772L157.84 190.498" stroke="#28BC00" stroke-width="2" stroke-linecap="round" stroke-linejoin="round"/>
<path d="M224.333 468.248L245.155 447.4" stroke="#28BC00" stroke-width="2" stroke-linecap="round" stroke-linejoin="round"/>
<path d="M237.767 470.265L266.648 441.347" stroke="#28BC00" stroke-width="2" stroke-linecap="round" stroke-linejoin="round"/>
<path d="M474.189 215.381L489.638 199.913" stroke="#28BC00" stroke-width="2" stroke-linecap="round" stroke-linejoin="round"/>
<path d="M500.384 203.948L474.861 229.504" stroke="#28BC00" stroke-width="2" stroke-linecap="round" stroke-linejoin="round"/>
<path d="M154.481 175.03L169.257 189.825" stroke="#28BC00" stroke-width="2" stroke-linecap="round" stroke-linejoin="round"/>
<path d="M511.802 448.745L521.205 458.16" stroke="#28BC00" stroke-width="2" stroke-linecap="round" stroke-linejoin="round"/>
<path d="M494.339 445.382L517.175 468.248" stroke="#28BC00" stroke-width="2" stroke-linecap="round" stroke-linejoin="round"/>
<path d="M589.043 425.879L594.416 431.259" stroke="#28BC00" stroke-width="2" stroke-linecap="round" stroke-linejoin="round"/>
<path d="M575.61 424.534L585.013 433.949" stroke="#28BC00" stroke-width="2" stroke-linecap="round" stroke-linejoin="round"/>
<path d="M270.566 301.445C267.158 311.561 270.509 319.747 273.072 324.058C273.664 312.004 274.004 309.036 276.29 303.417C278.576 297.797 281.848 293.996 287.261 290.272C287.334 290.221 274.474 289.848 270.566 301.445Z" fill="#C4C4C4" stroke="#C6C6C6" stroke-width="0.0745636"/>
<path d="M298.403 259.698C295.455 260.709 293.517 263.729 292.677 265.196C301.404 266.845 320.164 273.404 325.501 284.146C332.172 297.573 334.667 317.922 334.36 324.168C338.374 325.752 343.232 322.292 344.956 318.427L359.484 272.522C359.934 271.452 359.704 266.177 349.489 254.81C333.854 256.13 303.459 257.964 298.403 259.698Z" fill="#FB0200"/>
<path d="M348.49 255.126C349.605 254.642 352.208 254.635 353.37 254.692C362.545 262.27 359.305 281.375 350.802 286.159C344.269 289.016 336.579 296.345 333.452 299.273C333.041 295.497 326.327 281.2 319.496 276.242C322.845 270.531 347.097 255.732 348.49 255.126Z" fill="#FEE801" stroke="#FEE801" stroke-width="0.0745636"/>
<path d="M288.767 358.724C309.899 359.762 327.981 341.244 329.153 317.363C330.326 293.482 314.145 273.282 293.013 272.245C271.88 271.207 253.798 289.725 252.626 313.606C251.453 337.486 267.634 357.686 288.767 358.724Z" stroke="#0176FA" stroke-width="5.59227"/>
<path d="M450.356 310.273C452.756 320.674 448.62 328.492 445.647 332.531C446.239 320.477 446.19 317.49 444.466 311.674C442.742 305.858 439.858 301.754 434.836 297.517C434.768 297.46 447.603 298.348 450.356 310.273Z" fill="#C4C4C4" stroke="#C6C6C6" stroke-width="0.0745636"/>
<path d="M426.742 266C429.576 267.295 431.21 270.489 431.901 272.032C423.054 272.818 403.743 277.508 397.379 287.675C389.425 300.384 384.948 320.391 384.642 326.637C380.492 327.82 375.996 323.901 374.659 319.886L364.698 272.778C364.355 271.67 365.1 266.442 376.38 256.131C391.81 258.975 421.879 263.778 426.742 266Z" fill="#FB0200"/>
<path d="M377.343 256.543C376.281 255.952 373.691 255.69 372.529 255.632C362.657 262.275 364.009 281.606 372.002 287.2C378.224 290.684 385.159 298.73 387.984 301.951C388.763 298.232 396.846 284.663 404.129 280.397C401.356 274.385 378.671 257.282 377.343 256.543Z" fill="#FEE801" stroke="#FEE801" stroke-width="0.0745636"/>
<path d="M426.631 365.493C405.499 364.455 389.318 344.255 390.49 320.374C391.663 296.494 409.745 277.976 430.877 279.013C452.01 280.051 468.191 300.251 467.018 324.132C465.846 348.012 447.764 366.53 426.631 365.493Z" stroke="#0176FA" stroke-width="5.59227"/>
<path d="M362.12 290.163C371.512 290.624 379.548 282.394 380.069 271.78C380.59 261.166 373.399 252.188 364.007 251.727C354.614 251.266 346.578 259.496 346.057 270.11C345.536 280.724 352.727 289.701 362.12 290.163Z" fill="#0176FA"/>
<path d="M362.394 284.589C369.062 284.916 374.768 279.073 375.138 271.537C375.508 264.002 370.402 257.627 363.734 257.3C357.065 256.973 351.359 262.816 350.989 270.352C350.619 277.887 355.725 284.262 362.394 284.589Z" fill="#FEE801"/>
<path d="M362.8 278.06C366.228 278.228 369.161 275.224 369.351 271.35C369.542 267.476 366.917 264.199 363.489 264.031C360.06 263.862 357.127 266.866 356.937 270.74C356.747 274.614 359.372 277.891 362.8 278.06Z" fill="#FB0200"/>
<g filter="url(#filter0_d_504_801)">
<circle cx="363.368" cy="85.3681" r="62" transform="rotate(4.19391 363.368 85.3681)" fill="white"/>
</g>
<path d="M365.727 53.2045L354.156 63.7636L342.568 74.3036L331.073 84.7965L333.563 50.8459L365.727 53.2045Z" fill="#0D91D6"/>
<path d="M365.727 53.2045L365.655 53.1992L354.122 63.7252L342.551 74.2844L331.077 84.7429L331.073 84.7965L331.062 84.9573L328.846 115.173L345.512 100.784L357.365 90.5509L369.237 80.3012L381.109 70.0516L397.89 55.563L365.727 53.2045Z" fill="#F88909"/>
<path d="M345.512 100.784L328.846 115.173L331.062 84.9573L345.512 100.784Z" fill="#C757BC"/>
<path d="M357.365 90.5508L345.513 100.784L331.062 84.9572L331.074 84.7964L342.568 74.3035L357.365 90.5508Z" fill="#D3638F"/>
<path d="M369.237 80.3012L357.365 90.5508L342.568 74.3035L354.155 63.7635L369.237 80.3012Z" fill="#E07063"/>
<path d="M381.108 70.0515L369.237 80.3011L354.155 63.7635L365.726 53.2044L381.108 70.0515Z" fill="#EC7D36"/>
<path d="M397.89 55.5629L381.109 70.0515L365.727 53.2043L397.89 55.5629Z" fill="#F88909"/>
<path d="M341.685 75.0651L334.907 81.2689L331.597 77.6489L332.522 65.0336L341.685 75.0651Z" fill="#0095D5"/>
<path d="M348.464 68.8614L341.686 75.0652L332.523 65.0337L333.449 52.4005L348.464 68.8614Z" fill="#2B88DA"/>
<path d="M355.259 62.6768L348.464 68.8614L333.449 52.4005L333.563 50.8459L345.231 51.7016L355.259 62.6768Z" fill="#557BDE"/>
<path d="M362.038 56.473L355.259 62.6768L345.231 51.7015L365.727 53.2044L362.038 56.473Z" fill="#806EE3"/>
<path d="M361.45 87.0239L328.846 115.173L334.832 115.612L349.43 116.683L389.599 119.628L361.45 87.0239Z" fill="#0095D5"/>
<path d="M364.011 117.752L349.431 116.683L339.892 105.653L347.717 98.8975L364.011 117.752Z" fill="#2B88DA"/>
<path d="M378.628 118.824L364.012 117.752L347.717 98.8976L355.542 92.1418L378.628 118.824Z" fill="#557BDE"/>
<path d="M393.173 119.89L378.628 118.824L355.542 92.1418L363.368 85.3681L393.173 119.89Z" fill="#806EE3"/>
<g filter="url(#filter1_d_504_801)">
<circle cx="105.368" cy="211.368" r="62" transform="rotate(4.19391 105.368 211.368)" fill="white"/>
</g>
<path d="M138.234 179.645L77.4805 175.19L78.3861 236.337L102.878 245.319L128.418 240.005L138.234 179.645Z" fill="#E65100"/>
<path d="M107.464 182.778L103.284 239.779L123.716 235.529L131.944 184.573L107.464 182.778Z" fill="#FF6D00"/>
<path d="M105.237 213.155L105.761 206.007L121.128 207.134L118.37 227.592L103.913 231.202L104.464 223.697L111.973 221.733L113.099 213.731L105.237 213.155ZM122.188 200.026L123.248 192.918L106.809 191.713L106.285 198.86L122.188 200.026Z" fill="white"/>
<path d="M104.463 223.697L103.913 231.202L90.1375 225.521L90.1434 215.641L97.2909 216.165L97.3207 220.659L104.463 223.697ZM97.5291 198.218L106.285 198.86L106.809 191.713L90.5483 190.52L90.2268 212.054L105.237 213.155L105.761 206.007L97.541 205.405L97.5291 198.218Z" fill="#EEEEEE"/>
<g filter="url(#filter2_d_504_801)">
<circle cx="615.368" cy="409.368" r="62" transform="rotate(4.19391 615.368 409.368)" fill="white"/>
</g>
<path d="M642.884 382.809L592.021 379.08L592.779 430.272L613.284 437.792L634.666 433.344L642.884 382.809Z" fill="#0277BD"/>
<path d="M617.123 385.432L613.624 433.154L630.73 429.596L637.618 386.935L617.123 385.432Z" fill="#039BE5"/>
<path d="M630.188 393.911L616.575 392.912L616.136 398.896L623.466 399.434L622.579 405.385L615.697 404.88L615.258 410.864L621.841 411.347L620.898 418.046L614.611 419.69L614.15 425.974L626.254 422.951L628.563 405.824L630.188 393.911Z" fill="white"/>
<path d="M616.575 392.912L616.136 398.896L602.822 397.92L602.812 391.903L616.575 392.912ZM608.815 404.376L608.676 410.381L615.258 410.864L615.697 404.88L608.815 404.376ZM608.756 413.395L602.772 412.957L602.617 421.217L614.15 425.974L614.611 419.69L608.631 417.146L608.756 413.395Z" fill="#EEEEEE"/>
<g filter="url(#filter3_d_504_801)">
<circle cx="129.368" cy="441.368" r="62" transform="rotate(4.19391 129.368 441.368)" fill="white"/>
</g>
<path d="M147.101 473.585L128.651 472.232L112.978 454.079L122.88 445.53L147.101 473.585Z" fill="url(#paint9_linear_504_801)"/>
<path d="M100.155 439.226L133.161 410.73L151.611 412.083L108.704 449.128L100.155 439.226Z" fill="#50E6FF"/>
<path d="M149.582 439.759L121.527 463.98L112.978 454.079L131.131 438.406L149.582 439.759Z" fill="#50E6FF"/>
<path d="M122.879 445.53L112.978 454.079L121.526 463.98L131.427 455.431L122.879 445.53Z" fill="#35C1F1"/>
<g filter="url(#filter4_d_504_801)">
<circle cx="593.368" cy="167.368" r="62" transform="rotate(4.19391 593.368 167.368)" fill="white"/>
</g>
<path d="M618.861 159.339C617.868 154.436 615.476 150.007 612.087 146.507L603.473 153.943C606.226 156.54 607.942 160.192 608.011 164.187L607.818 166.819C607.863 166.822 607.906 166.811 607.952 166.814C612.004 167.112 615.061 170.652 614.764 174.705C614.467 178.757 610.926 181.816 606.873 181.519C606.828 181.515 606.787 181.5 606.742 181.495L606.741 181.509L595.106 180.656L592.408 180.458L591.576 191.803L605.909 192.854L605.909 192.847C605.955 192.85 605.996 192.86 606.042 192.863C616.351 193.619 625.352 185.846 626.108 175.538C626.585 169.037 623.665 163.061 618.861 159.339Z" fill="#1976D2"/>
<path opacity="0.5" d="M585.416 169.575L594.258 161.941C594.251 161.932 594.245 161.924 594.24 161.917L585.404 169.546C585.406 169.555 585.411 169.564 585.416 169.575Z" fill="#FFE082"/>
<path opacity="0.5" d="M585.416 169.575L594.258 161.941C594.251 161.932 594.245 161.924 594.24 161.917L585.404 169.546C585.406 169.555 585.411 169.564 585.416 169.575Z" fill="#90CAF9"/>
<path d="M595.47 138.703C581.276 137.662 568.88 148.364 567.839 162.559C567.81 162.965 567.822 163.365 567.812 163.768L579.157 164.599C579.153 164.199 579.154 163.797 579.184 163.391C579.766 155.451 586.699 149.466 594.639 150.048C598.075 150.3 601.143 151.746 603.474 153.944L612.087 146.507C607.833 142.114 602.035 139.184 595.47 138.703Z" fill="#FF3D00"/>
<path opacity="0.5" d="M577.943 179.397C577.941 179.397 577.941 179.397 577.939 179.397C576.873 179.319 575.884 179.006 574.999 178.527L566.176 186.145C569.132 188.732 572.903 190.433 577.108 190.742C577.109 190.742 577.109 190.742 577.111 190.742L591.576 191.803L592.408 180.458L577.943 179.397Z" fill="#90CAF9"/>
<path d="M577.943 179.397C577.941 179.397 577.941 179.397 577.939 179.397C576.873 179.319 575.884 179.006 574.999 178.527L566.176 186.145C569.132 188.732 572.903 190.433 577.108 190.742C577.109 190.742 577.109 190.742 577.111 190.742L591.576 191.803L592.408 180.458L577.943 179.397Z" fill="#4CAF50"/>
<path d="M571.131 171.511C571.428 167.461 574.968 164.405 579.017 164.702C581.989 164.92 584.433 166.894 585.402 169.546L594.238 161.917C591.149 157.125 585.945 153.804 579.847 153.357C569.552 152.602 560.542 160.364 559.786 170.679C559.339 176.772 561.894 182.397 566.176 186.145L574.999 178.527C572.521 177.191 570.912 174.493 571.131 171.511Z" fill="#FFC107"/>
<g filter="url(#filter5_d_504_801)">
<circle cx="389.368" cy="547.368" r="62" transform="rotate(4.19391 389.368 547.368)" fill="white"/>
</g>
<g clip-path="url(#clip0_504_801)">
<path d="M382.444 521.292L381.379 533.246L361.931 531.82C361.931 531.82 362.213 527.98 362.425 525.088C362.637 522.196 365.153 520.024 368.045 520.236C370.937 520.448 382.444 521.292 382.444 521.292Z" fill="#37474F"/>
<path d="M400.373 520.542L403.482 516.082C403.956 515.402 403.789 514.466 403.111 513.992C402.431 513.517 401.497 513.686 401.021 514.364L397.752 519.051C395.854 518.178 393.773 517.611 391.562 517.448C389.351 517.286 387.21 517.544 385.202 518.133L382.652 513.018C382.282 512.278 381.382 511.975 380.639 512.346C379.898 512.716 379.597 513.617 379.967 514.359L382.392 519.225C377.244 521.735 373.415 526.631 372.478 532.595L408.232 535.217C408.176 529.178 405.102 523.776 400.373 520.542Z" fill="#00E676"/>
<path d="M383.314 527.372C384.14 527.432 384.859 526.812 384.92 525.986C384.98 525.159 384.36 524.44 383.534 524.38C382.707 524.319 381.988 524.94 381.928 525.766C381.867 526.592 382.488 527.311 383.314 527.372Z" fill="white"/>
<path d="M398.274 528.469C399.1 528.529 399.819 527.909 399.88 527.083C399.94 526.256 399.32 525.537 398.494 525.477C397.667 525.416 396.948 526.037 396.888 526.863C396.827 527.689 397.448 528.408 398.274 528.469Z" fill="white"/>
<path d="M413.653 534.109C412.914 534.054 368.564 530.802 367.277 530.708C364.386 530.496 362.213 527.98 362.425 525.088C362.425 525.09 359.675 562.588 359.463 565.48C359.251 568.371 361.424 570.887 364.315 571.1C365.602 571.194 415.927 574.884 415.927 574.884C415.927 574.884 418.293 542.62 418.505 539.728C418.717 536.837 416.545 534.321 413.653 534.109Z" fill="#448AFF"/>
<path d="M412.885 544.581C412.373 544.543 411.582 544.485 410.641 544.416L407.803 583.125C408.743 583.194 409.535 583.252 410.046 583.289C412.938 583.501 415.454 581.329 415.666 578.437C415.878 575.545 418.505 539.729 418.505 539.729C418.293 542.62 415.777 544.793 412.885 544.581Z" fill="#37474F"/>
<path d="M401.78 578.451L392.379 553.969C393.971 552.992 395.096 551.303 395.242 549.303C395.446 546.523 393.702 544.06 391.177 543.202L391.412 539.998C391.473 539.172 390.852 538.453 390.026 538.392C389.2 538.332 388.481 538.953 388.42 539.779L388.185 542.983C385.563 543.463 383.478 545.646 383.274 548.425C383.128 550.425 383.993 552.261 385.426 553.459L372.561 576.296C371.828 577.597 372.039 579.303 373.205 580.236C374.693 581.425 376.817 580.965 377.711 579.378L385.739 565.128C386.804 563.237 389.591 563.442 390.369 565.467L396.233 580.736C396.662 581.858 397.691 582.571 398.814 582.653C399.429 582.699 400.073 582.553 400.658 582.184C401.885 581.411 402.3 579.805 401.78 578.451ZM389.478 545.872C391.128 545.993 392.371 547.433 392.25 549.084C392.129 550.734 390.689 551.977 389.039 551.856C387.389 551.735 386.145 550.295 386.266 548.645C386.387 546.995 387.828 545.751 389.478 545.872Z" fill="#37474F"/>
</g>
<defs>
<filter id="filter0_d_504_801" x="284.365" y="10.3652" width="158.006" height="158.006" filterUnits="userSpaceOnUse" color-interpolation-filters="sRGB">
<feFlood flood-opacity="0" result="BackgroundImageFix"/>
<feColorMatrix in="SourceAlpha" type="matrix" values="0 0 0 0 0 0 0 0 0 0 0 0 0 0 0 0 0 0 127 0" result="hardAlpha"/>
<feMorphology radius="2" operator="dilate" in="SourceAlpha" result="effect1_dropShadow_504_801"/>
<feOffset dy="4"/>
<feGaussianBlur stdDeviation="7.5"/>
<feComposite in2="hardAlpha" operator="out"/>
<feColorMatrix type="matrix" values="0 0 0 0 0 0 0 0 0 0 0 0 0 0 0 0 0 0 0.09 0"/>
<feBlend mode="normal" in2="BackgroundImageFix" result="effect1_dropShadow_504_801"/>
<feBlend mode="normal" in="SourceGraphic" in2="effect1_dropShadow_504_801" result="shape"/>
</filter>
<filter id="filter1_d_504_801" x="26.3647" y="136.365" width="158.006" height="158.006" filterUnits="userSpaceOnUse" color-interpolation-filters="sRGB">
<feFlood flood-opacity="0" result="BackgroundImageFix"/>
<feColorMatrix in="SourceAlpha" type="matrix" values="0 0 0 0 0 0 0 0 0 0 0 0 0 0 0 0 0 0 127 0" result="hardAlpha"/>
<feMorphology radius="2" operator="dilate" in="SourceAlpha" result="effect1_dropShadow_504_801"/>
<feOffset dy="4"/>
<feGaussianBlur stdDeviation="7.5"/>
<feComposite in2="hardAlpha" operator="out"/>
<feColorMatrix type="matrix" values="0 0 0 0 0 0 0 0 0 0 0 0 0 0 0 0 0 0 0.09 0"/>
<feBlend mode="normal" in2="BackgroundImageFix" result="effect1_dropShadow_504_801"/>
<feBlend mode="normal" in="SourceGraphic" in2="effect1_dropShadow_504_801" result="shape"/>
</filter>
<filter id="filter2_d_504_801" x="536.365" y="334.365" width="158.006" height="158.006" filterUnits="userSpaceOnUse" color-interpolation-filters="sRGB">
<feFlood flood-opacity="0" result="BackgroundImageFix"/>
<feColorMatrix in="SourceAlpha" type="matrix" values="0 0 0 0 0 0 0 0 0 0 0 0 0 0 0 0 0 0 127 0" result="hardAlpha"/>
<feMorphology radius="2" operator="dilate" in="SourceAlpha" result="effect1_dropShadow_504_801"/>
<feOffset dy="4"/>
<feGaussianBlur stdDeviation="7.5"/>
<feComposite in2="hardAlpha" operator="out"/>
<feColorMatrix type="matrix" values="0 0 0 0 0 0 0 0 0 0 0 0 0 0 0 0 0 0 0.09 0"/>
<feBlend mode="normal" in2="BackgroundImageFix" result="effect1_dropShadow_504_801"/>
<feBlend mode="normal" in="SourceGraphic" in2="effect1_dropShadow_504_801" result="shape"/>
</filter>
<filter id="filter3_d_504_801" x="50.3652" y="366.365" width="158.006" height="158.006" filterUnits="userSpaceOnUse" color-interpolation-filters="sRGB">
<feFlood flood-opacity="0" result="BackgroundImageFix"/>
<feColorMatrix in="SourceAlpha" type="matrix" values="0 0 0 0 0 0 0 0 0 0 0 0 0 0 0 0 0 0 127 0" result="hardAlpha"/>
<feMorphology radius="2" operator="dilate" in="SourceAlpha" result="effect1_dropShadow_504_801"/>
<feOffset dy="4"/>
<feGaussianBlur stdDeviation="7.5"/>
<feComposite in2="hardAlpha" operator="out"/>
<feColorMatrix type="matrix" values="0 0 0 0 0 0 0 0 0 0 0 0 0 0 0 0 0 0 0.09 0"/>
<feBlend mode="normal" in2="BackgroundImageFix" result="effect1_dropShadow_504_801"/>
<feBlend mode="normal" in="SourceGraphic" in2="effect1_dropShadow_504_801" result="shape"/>
</filter>
<filter id="filter4_d_504_801" x="514.365" y="92.3654" width="158.006" height="158.006" filterUnits="userSpaceOnUse" color-interpolation-filters="sRGB">
<feFlood flood-opacity="0" result="BackgroundImageFix"/>
<feColorMatrix in="SourceAlpha" type="matrix" values="0 0 0 0 0 0 0 0 0 0 0 0 0 0 0 0 0 0 127 0" result="hardAlpha"/>
<feMorphology radius="2" operator="dilate" in="SourceAlpha" result="effect1_dropShadow_504_801"/>
<feOffset dy="4"/>
<feGaussianBlur stdDeviation="7.5"/>
<feComposite in2="hardAlpha" operator="out"/>
<feColorMatrix type="matrix" values="0 0 0 0 0 0 0 0 0 0 0 0 0 0 0 0 0 0 0.09 0"/>
<feBlend mode="normal" in2="BackgroundImageFix" result="effect1_dropShadow_504_801"/>
<feBlend mode="normal" in="SourceGraphic" in2="effect1_dropShadow_504_801" result="shape"/>
</filter>
<filter id="filter5_d_504_801" x="310.365" y="472.365" width="158.006" height="158.006" filterUnits="userSpaceOnUse" color-interpolation-filters="sRGB">
<feFlood flood-opacity="0" result="BackgroundImageFix"/>
<feColorMatrix in="SourceAlpha" type="matrix" values="0 0 0 0 0 0 0 0 0 0 0 0 0 0 0 0 0 0 127 0" result="hardAlpha"/>
<feMorphology radius="2" operator="dilate" in="SourceAlpha" result="effect1_dropShadow_504_801"/>
<feOffset dy="4"/>
<feGaussianBlur stdDeviation="7.5"/>
<feComposite in2="hardAlpha" operator="out"/>
<feColorMatrix type="matrix" values="0 0 0 0 0 0 0 0 0 0 0 0 0 0 0 0 0 0 0.09 0"/>
<feBlend mode="normal" in2="BackgroundImageFix" result="effect1_dropShadow_504_801"/>
<feBlend mode="normal" in="SourceGraphic" in2="effect1_dropShadow_504_801" result="shape"/>
</filter>
<linearGradient id="paint0_linear_504_801" x1="291.282" y1="185.334" x2="220.182" y2="85.6709" gradientUnits="userSpaceOnUse">
<stop stop-color="#28BC00"/>
<stop offset="1" stop-color="#28BC00" stop-opacity="0"/>
</linearGradient>
<linearGradient id="paint1_linear_504_801" x1="100.077" y1="210.673" x2="86.6436" y2="210.673" gradientUnits="userSpaceOnUse">
<stop stop-color="#EEEEFF"/>
<stop offset="1" stop-color="#EEEEFF" stop-opacity="0"/>
</linearGradient>
<linearGradient id="paint2_linear_504_801" x1="511.131" y1="237.574" x2="497.698" y2="237.574" gradientUnits="userSpaceOnUse">
<stop stop-color="#EEEEFF"/>
<stop offset="1" stop-color="#EEEEFF" stop-opacity="0"/>
</linearGradient>
<linearGradient id="paint3_linear_504_801" x1="609.192" y1="179.737" x2="595.759" y2="179.737" gradientUnits="userSpaceOnUse">
<stop stop-color="#EEEEFF"/>
<stop offset="1" stop-color="#EEEEFF" stop-opacity="0"/>
</linearGradient>
<linearGradient id="paint4_linear_504_801" x1="184.706" y1="440.675" x2="171.273" y2="440.675" gradientUnits="userSpaceOnUse">
<stop stop-color="#EEEEFF"/>
<stop offset="1" stop-color="#EEEEFF" stop-opacity="0"/>
</linearGradient>
<linearGradient id="paint5_linear_504_801" x1="405.028" y1="174.126" x2="211.863" y2="156.051" gradientUnits="userSpaceOnUse">
<stop stop-color="#DADAFF"/>
<stop offset="1" stop-color="#EEEEFF" stop-opacity="0"/>
</linearGradient>
<linearGradient id="paint6_linear_504_801" x1="394.511" y1="495.375" x2="-101.333" y2="430.362" gradientUnits="userSpaceOnUse">
<stop stop-color="#DADAFF"/>
<stop offset="1" stop-color="#EEEEFF" stop-opacity="0"/>
</linearGradient>
<linearGradient id="paint7_linear_504_801" x1="473.197" y1="550.761" x2="391.415" y2="418.752" gradientUnits="userSpaceOnUse">
<stop stop-color="#28BC00"/>
<stop offset="1" stop-color="#28BC00" stop-opacity="0"/>
</linearGradient>
<linearGradient id="paint8_linear_504_801" x1="678.01" y1="361.48" x2="518.733" y2="345.064" gradientUnits="userSpaceOnUse">
<stop stop-color="#DADAFF"/>
<stop offset="1" stop-color="#EEEEFF" stop-opacity="0"/>
</linearGradient>
<linearGradient id="paint9_linear_504_801" x1="142.592" y1="478.371" x2="123.946" y2="456.773" gradientUnits="userSpaceOnUse">
<stop stop-color="#0176D0"/>
<stop offset="0.454" stop-color="#0275CE"/>
<stop offset="0.617" stop-color="#0472C7"/>
<stop offset="0.733" stop-color="#076BBC"/>
<stop offset="0.827" stop-color="#0D63AB"/>
<stop offset="0.907" stop-color="#135895"/>
<stop offset="0.933" stop-color="#16538C"/>
</linearGradient>
<clipPath id="clip0_504_801">
<rect width="72" height="72" fill="white" transform="translate(356.097 508.832) rotate(4.19391)"/>
</clipPath>
</defs>
</svg>
