<svg width="786" height="469" viewBox="0 0 786 469" fill="none" xmlns="http://www.w3.org/2000/svg">
<g filter="url(#filter0_bii_504_792)">
<ellipse cx="125.5" cy="126.5" rx="125.5" ry="126.5" fill="#66BB6A" fill-opacity="0.2"/>
</g>
<path d="M112.24 164.4C110.8 161.627 108.8 159.547 106.24 158.16C103.68 156.72 100.72 156 97.36 156C93.68 156 90.4 156.827 87.52 158.48C84.64 160.133 82.3733 162.48 80.72 165.52C79.12 168.56 78.32 172.08 78.32 176.08C78.32 180.08 79.12 183.627 80.72 186.72C82.3733 189.76 84.64 192.107 87.52 193.76C90.4 195.413 93.68 196.24 97.36 196.24C102.32 196.24 106.347 194.853 109.44 192.08C112.533 189.307 114.427 185.547 115.12 180.8H94.24V173.52H124.88V180.64C124.293 184.96 122.747 188.933 120.24 192.56C117.787 196.187 114.56 199.093 110.56 201.28C106.613 203.413 102.213 204.48 97.36 204.48C92.1333 204.48 87.36 203.28 83.04 200.88C78.72 198.427 75.28 195.04 72.72 190.72C70.2133 186.4 68.96 181.52 68.96 176.08C68.96 170.64 70.2133 165.76 72.72 161.44C75.28 157.12 78.72 153.76 83.04 151.36C87.4133 148.907 92.1867 147.68 97.36 147.68C103.28 147.68 108.533 149.147 113.12 152.08C117.76 154.96 121.12 159.067 123.2 164.4H112.24ZM152.285 148.4C158.205 148.4 163.378 149.547 167.805 151.84C172.285 154.08 175.725 157.333 178.125 161.6C180.578 165.813 181.805 170.747 181.805 176.4C181.805 182.053 180.578 186.96 178.125 191.12C175.725 195.28 172.285 198.48 167.805 200.72C163.378 202.907 158.205 204 152.285 204H134.125V148.4H152.285ZM152.285 196.56C158.792 196.56 163.778 194.8 167.245 191.28C170.712 187.76 172.445 182.8 172.445 176.4C172.445 169.947 170.712 164.907 167.245 161.28C163.778 157.653 158.792 155.84 152.285 155.84H143.245V196.56H152.285ZM209.414 204.56C205.68 204.56 202.32 203.92 199.334 202.64C196.347 201.307 194 199.44 192.294 197.04C190.587 194.64 189.734 191.84 189.734 188.64H199.494C199.707 191.04 200.64 193.013 202.294 194.56C204 196.107 206.374 196.88 209.414 196.88C212.56 196.88 215.014 196.133 216.774 194.64C218.534 193.093 219.414 191.12 219.414 188.72C219.414 186.853 218.854 185.333 217.734 184.16C216.667 182.987 215.307 182.08 213.654 181.44C212.054 180.8 209.814 180.107 206.934 179.36C203.307 178.4 200.347 177.44 198.054 176.48C195.814 175.467 193.894 173.92 192.294 171.84C190.694 169.76 189.894 166.987 189.894 163.52C189.894 160.32 190.694 157.52 192.294 155.12C193.894 152.72 196.134 150.88 199.014 149.6C201.894 148.32 205.227 147.68 209.014 147.68C214.4 147.68 218.8 149.04 222.214 151.76C225.68 154.427 227.6 158.107 227.974 162.8H217.894C217.734 160.773 216.774 159.04 215.014 157.6C213.254 156.16 210.934 155.44 208.054 155.44C205.44 155.44 203.307 156.107 201.654 157.44C200 158.773 199.174 160.693 199.174 163.2C199.174 164.907 199.68 166.32 200.694 167.44C201.76 168.507 203.094 169.36 204.694 170C206.294 170.64 208.48 171.333 211.254 172.08C214.934 173.093 217.92 174.107 220.214 175.12C222.56 176.133 224.534 177.707 226.134 179.84C227.787 181.92 228.614 184.72 228.614 188.24C228.614 191.067 227.84 193.733 226.294 196.24C224.8 198.747 222.587 200.773 219.654 202.32C216.774 203.813 213.36 204.56 209.414 204.56ZM236.585 176.08C236.585 170.64 237.838 165.76 240.345 161.44C242.905 157.12 246.345 153.76 250.665 151.36C255.038 148.907 259.812 147.68 264.985 147.68C270.905 147.68 276.158 149.147 280.745 152.08C285.385 154.96 288.745 159.067 290.825 164.4H279.865C278.425 161.467 276.425 159.28 273.865 157.84C271.305 156.4 268.345 155.68 264.985 155.68C261.305 155.68 258.025 156.507 255.145 158.16C252.265 159.813 249.998 162.187 248.345 165.28C246.745 168.373 245.945 171.973 245.945 176.08C245.945 180.187 246.745 183.787 248.345 186.88C249.998 189.973 252.265 192.373 255.145 194.08C258.025 195.733 261.305 196.56 264.985 196.56C268.345 196.56 271.305 195.84 273.865 194.4C276.425 192.96 278.425 190.773 279.865 187.84H290.825C288.745 193.173 285.385 197.28 280.745 200.16C276.158 203.04 270.905 204.48 264.985 204.48C259.758 204.48 254.985 203.28 250.665 200.88C246.345 198.427 242.905 195.04 240.345 190.72C237.838 186.4 236.585 181.52 236.585 176.08ZM331.901 155.76V172.08H351.101V179.52H331.901V196.56H353.501V204H322.781V148.32H353.501V155.76H331.901ZM390.504 176.24L407.784 204H397.544L384.984 183.84L373.224 204H363.064L380.344 176.24L362.984 148.4H373.224L385.864 168.72L397.704 148.4H407.864L390.504 176.24ZM456.927 164.96C456.927 167.787 456.26 170.453 454.927 172.96C453.594 175.467 451.46 177.52 448.527 179.12C445.594 180.667 441.834 181.44 437.247 181.44H427.167V204H418.047V148.4H437.247C441.514 148.4 445.114 149.147 448.047 150.64C451.034 152.08 453.247 154.053 454.687 156.56C456.18 159.067 456.927 161.867 456.927 164.96ZM437.247 174C440.714 174 443.3 173.227 445.007 171.68C446.714 170.08 447.567 167.84 447.567 164.96C447.567 158.88 444.127 155.84 437.247 155.84H427.167V174H437.247ZM474.995 196.64H493.795V204H465.875V148.4H474.995V196.64ZM527.032 204.56C521.859 204.56 517.085 203.36 512.712 200.96C508.392 198.507 504.952 195.12 502.392 190.8C499.885 186.427 498.632 181.52 498.632 176.08C498.632 170.64 499.885 165.76 502.392 161.44C504.952 157.12 508.392 153.76 512.712 151.36C517.085 148.907 521.859 147.68 527.032 147.68C532.259 147.68 537.032 148.907 541.352 151.36C545.725 153.76 549.165 157.12 551.672 161.44C554.179 165.76 555.432 170.64 555.432 176.08C555.432 181.52 554.179 186.427 551.672 190.8C549.165 195.12 545.725 198.507 541.352 200.96C537.032 203.36 532.259 204.56 527.032 204.56ZM527.032 196.64C530.712 196.64 533.992 195.813 536.872 194.16C539.752 192.453 541.992 190.053 543.592 186.96C545.245 183.813 546.072 180.187 546.072 176.08C546.072 171.973 545.245 168.373 543.592 165.28C541.992 162.187 539.752 159.813 536.872 158.16C533.992 156.507 530.712 155.68 527.032 155.68C523.352 155.68 520.072 156.507 517.192 158.16C514.312 159.813 512.045 162.187 510.392 165.28C508.792 168.373 507.992 171.973 507.992 176.08C507.992 180.187 508.792 183.813 510.392 186.96C512.045 190.053 514.312 192.453 517.192 194.16C520.072 195.813 523.352 196.64 527.032 196.64ZM593.536 204L580.736 181.76H573.776V204H564.656V148.4H583.856C588.123 148.4 591.723 149.147 594.656 150.64C597.643 152.133 599.856 154.133 601.296 156.64C602.79 159.147 603.536 161.947 603.536 165.04C603.536 168.667 602.47 171.973 600.336 174.96C598.256 177.893 595.03 179.893 590.656 180.96L604.416 204H593.536ZM573.776 174.48H583.856C587.27 174.48 589.83 173.627 591.536 171.92C593.296 170.213 594.176 167.92 594.176 165.04C594.176 162.16 593.323 159.92 591.616 158.32C589.91 156.667 587.323 155.84 583.856 155.84H573.776V174.48ZM624.573 155.76V172.08H643.773V179.52H624.573V196.56H646.173V204H615.453V148.32H646.173V155.76H624.573Z" fill="black"/>
<g filter="url(#filter1_bii_504_792)">
<circle cx="652" cy="335" r="134" fill="#FEE801" fill-opacity="0.28"/>
</g>
<defs>
<filter id="filter0_bii_504_792" x="-20.1333" y="-20.1333" width="291.267" height="293.267" filterUnits="userSpaceOnUse" color-interpolation-filters="sRGB">
<feFlood flood-opacity="0" result="BackgroundImageFix"/>
<feGaussianBlur in="BackgroundImage" stdDeviation="10.0667"/>
<feComposite in2="SourceAlpha" operator="in" result="effect1_backgroundBlur_504_792"/>
<feBlend mode="normal" in="SourceGraphic" in2="effect1_backgroundBlur_504_792" result="shape"/>
<feColorMatrix in="SourceAlpha" type="matrix" values="0 0 0 0 0 0 0 0 0 0 0 0 0 0 0 0 0 0 127 0" result="hardAlpha"/>
<feOffset dx="-10.0667" dy="10.0667"/>
<feGaussianBlur stdDeviation="5.03333"/>
<feComposite in2="hardAlpha" operator="arithmetic" k2="-1" k3="1"/>
<feColorMatrix type="matrix" values="0 0 0 0 1 0 0 0 0 1 0 0 0 0 1 0 0 0 0.1 0"/>
<feBlend mode="normal" in2="shape" result="effect2_innerShadow_504_792"/>
<feColorMatrix in="SourceAlpha" type="matrix" values="0 0 0 0 0 0 0 0 0 0 0 0 0 0 0 0 0 0 127 0" result="hardAlpha"/>
<feOffset dx="10.0667" dy="-10.0667"/>
<feGaussianBlur stdDeviation="5.03333"/>
<feComposite in2="hardAlpha" operator="arithmetic" k2="-1" k3="1"/>
<feColorMatrix type="matrix" values="0 0 0 0 0.0983529 0 0 0 0 0.447059 0 0 0 0 0.724235 0 0 0 0.1 0"/>
<feBlend mode="normal" in2="effect2_innerShadow_504_792" result="effect3_innerShadow_504_792"/>
</filter>
<filter id="filter1_bii_504_792" x="497.867" y="180.867" width="308.267" height="308.267" filterUnits="userSpaceOnUse" color-interpolation-filters="sRGB">
<feFlood flood-opacity="0" result="BackgroundImageFix"/>
<feGaussianBlur in="BackgroundImage" stdDeviation="10.0667"/>
<feComposite in2="SourceAlpha" operator="in" result="effect1_backgroundBlur_504_792"/>
<feBlend mode="normal" in="SourceGraphic" in2="effect1_backgroundBlur_504_792" result="shape"/>
<feColorMatrix in="SourceAlpha" type="matrix" values="0 0 0 0 0 0 0 0 0 0 0 0 0 0 0 0 0 0 127 0" result="hardAlpha"/>
<feOffset dx="-10.0667" dy="10.0667"/>
<feGaussianBlur stdDeviation="5.03333"/>
<feComposite in2="hardAlpha" operator="arithmetic" k2="-1" k3="1"/>
<feColorMatrix type="matrix" values="0 0 0 0 1 0 0 0 0 1 0 0 0 0 1 0 0 0 0.1 0"/>
<feBlend mode="normal" in2="shape" result="effect2_innerShadow_504_792"/>
<feColorMatrix in="SourceAlpha" type="matrix" values="0 0 0 0 0 0 0 0 0 0 0 0 0 0 0 0 0 0 127 0" result="hardAlpha"/>
<feOffset dx="10.0667" dy="-10.0667"/>
<feGaussianBlur stdDeviation="5.03333"/>
<feComposite in2="hardAlpha" operator="arithmetic" k2="-1" k3="1"/>
<feColorMatrix type="matrix" values="0 0 0 0 0.0983529 0 0 0 0 0.447059 0 0 0 0 0.724235 0 0 0 0.1 0"/>
<feBlend mode="normal" in2="effect2_innerShadow_504_792" result="effect3_innerShadow_504_792"/>
</filter>
</defs>
</svg>
