<svg width="1920" height="808" viewBox="0 0 1920 808" fill="none" xmlns="http://www.w3.org/2000/svg">
<path d="M1966.51 51.2107C1971.17 58.4365 1976.72 60.5283 1985.13 59.9126C1990.5 59.5209 1996.45 62.5745 2002.23 63.4862C2019.8 66.2495 2037.46 68.3999 2055 71.4501C2064.83 73.1532 2074.54 77.868 2084.15 78.1755C2102.66 78.7505 2112.86 93.4478 2129.89 96.1429C2140.3 97.819 2150.5 101.382 2160.74 104.205C2163.25 104.895 2166.23 105.516 2167.98 106.979C2182.76 119.207 2200.7 123.371 2220.18 124.547C2225.31 124.862 2231.23 125.956 2235.43 128.362C2244.7 133.678 2257.16 135.506 2262.8 144.923C2265.33 149.132 2267.45 153.48 2269.68 157.794C2273.19 164.566 2275.3 172.081 2280.4 177.993C2292.09 191.567 2293.06 206.59 2295.72 221.467C2297.2 229.847 2299.2 238.315 2299.23 246.632C2299.28 262.207 2298.19 277.721 2297.35 293.245C2296.29 312.487 2296.4 331.904 2290.42 350.422C2289.16 354.312 2287.47 358.08 2286.22 361.965C2281.9 375.424 2286.76 389.124 2288.61 402.746C2289.98 412.729 2291.36 422.698 2292.36 432.674C2293.36 442.65 2293.38 452.685 2294.71 462.682C2297.38 482.429 2297.31 501.759 2291.59 520.704C2290.12 525.641 2290.22 531.066 2291.88 536.239C2297.63 553.273 2295.07 569.963 2295.68 586.848C2296.38 606.315 2299.61 625.89 2302.01 645.408C2303.29 655.896 2303.94 665.994 2299.61 676.077C2296.75 682.698 2297.72 690.58 2296.33 697.756C2294.31 708.265 2291.63 718.656 2289.44 729.162C2288.03 735.894 2286.64 742.657 2285.81 749.492C2283.78 766.175 2281.76 782.873 2280.44 799.643C2279.95 806.041 2281.07 812.636 2282 819.133C2284.08 833.723 2283.73 846.758 2270.68 858.459C2263.24 865.125 2261.11 876.444 2258.75 886.143C2255.78 898.793 2253.89 911.777 2253.08 924.956C2252.62 933.542 2253.38 942.265 2255.34 950.858C2259.1 968.367 2258.41 985.547 2257.58 1002.89C2257.18 1011.28 2260.24 1020.01 2261.69 1028.6C2263.26 1037.88 2267.05 1047.54 2265.74 1056.38C2264 1067.88 2259.6 1079.25 2242.87 1083C2238.61 1083.96 2234.98 1088.66 2233.09 1092.41C2230.37 1097.84 2229.95 1104.1 2227.78 1109.77C2224.56 1118.2 2220.52 1126.36 2217.14 1134.76C2215.06 1139.99 2212.32 1145.31 2212.17 1150.76C2211.85 1160.98 2202.8 1165.79 2195.82 1171.93C2185.54 1181 2175.4 1189.99 2170.86 1202.44C2167.98 1210.32 2157.08 1215.31 2146.72 1214.67C2142.8 1214.44 2138.41 1214.4 2135.07 1215.64C2129.58 1217.62 2125.78 1214.78 2120.98 1213.52C2106.9 1209.81 2097.11 1199.84 2082.59 1196.21C2071.58 1193.47 2061.15 1187.25 2051.64 1181.28C2045.95 1177.71 2040.42 1178.08 2034.75 1176.99C2024.98 1175.11 2015.17 1173.41 2005.38 1171.56C2003.58 1171.22 2001.58 1169.95 2000.07 1170.23C1988.44 1172.39 1975.83 1167.87 1964.43 1171.66C1962.18 1172.39 1959.22 1172 1956.59 1171.9C1942.08 1171.3 1927.57 1170.49 1913.08 1170.14C1910.45 1170.07 1907.79 1171.55 1905.37 1172.69C1896.98 1176.62 1888.48 1179.26 1877.82 1177.5C1870.36 1176.28 1862.58 1177.36 1855.05 1176.36C1851.49 1175.68 1848.17 1173.71 1845.73 1170.8C1838.61 1161.41 1828.23 1157.84 1816.07 1157.31C1812.83 1157.16 1809.59 1158.37 1806.43 1159.25C1799.06 1161.27 1792.86 1164.71 1783.29 1162.42C1777.97 1161.15 1769.6 1164.48 1765.18 1167.93C1752.64 1177.67 1736.48 1178.38 1720.3 1179.49C1711.1 1180.11 1701.86 1180.68 1692.61 1180.8C1687.96 1180.84 1682.83 1178.76 1678.53 1179.4C1668.08 1180.99 1657.89 1183.48 1647.74 1185.93C1639.52 1187.92 1631.7 1190.87 1623.35 1192.45C1619.36 1193.19 1614.48 1191.41 1610.08 1191.44C1597.36 1191.5 1584.57 1191.47 1572.03 1192.42C1567.87 1192.74 1564.65 1196.89 1560.42 1197.68C1547.85 1200.04 1534.97 1200.46 1521.65 1199.8C1510.93 1199.28 1502.19 1197.53 1494.24 1190.93C1491.48 1188.64 1486.29 1188.48 1482.84 1186.54C1475.91 1182.65 1466.7 1182.53 1461.42 1175.66C1456.34 1169.08 1448.79 1165.44 1438.98 1163.77C1430.65 1162.35 1422.76 1158.12 1414.72 1155.01C1411.3 1153.69 1408.21 1151.42 1404.71 1150.61C1392.13 1147.71 1385.58 1138.82 1377.02 1131.99C1372.46 1128.36 1358.64 1124.64 1352.99 1127.55C1342.63 1132.89 1333.27 1128.18 1323.54 1125.37C1321.8 1124.87 1319.93 1123.04 1318.61 1123.25C1310.83 1124.53 1302.69 1123.99 1295.03 1124.68C1277.61 1126.25 1260.73 1130.2 1243.63 1133.2C1243.38 1133.24 1243.01 1133.45 1242.89 1133.41C1232.2 1125.6 1223.59 1136.55 1213.47 1133.71C1199.59 1141.13 1181.96 1133.04 1167.51 1138.27C1166.49 1138.48 1165.42 1138.41 1164.38 1138.07C1151.19 1134.66 1138.09 1130.91 1124.81 1127.85C1114.81 1125.54 1104.57 1123.88 1094.38 1122.38C1082.02 1120.55 1069.59 1118.93 1057.17 1117.78C1049.69 1117.09 1042.14 1117.34 1034.64 1117.35C1027.14 1117.36 1020.03 1118.38 1011.72 1115.84C1002.79 1113.1 992.326 1114.75 982.553 1113.86C956.751 1111.49 930.929 1110.77 905.235 1104.85C892.234 1101.84 878.444 1102.04 864.968 1100.81C864.166 1100.71 863.364 1100.74 862.597 1100.91C853.304 1103.65 844.075 1106.52 834.725 1109.16C832.329 1109.83 829.589 1109.85 827.002 1110.1C825.982 1110.19 824.825 1109.78 823.848 1109.93C812.521 1111.7 801.22 1113.55 789.902 1115.34C787.49 1115.81 785.035 1116.11 782.552 1116.24C764.123 1116.41 751.082 1127.72 733.799 1129.57C719.89 1131.06 710.415 1137.92 699.188 1142.86C692.082 1145.99 683.747 1147.66 675.685 1149.15C662.547 1151.59 649.316 1154.17 635.811 1155.1C627.506 1155.55 619.051 1154.44 610.854 1151.82C594.926 1146.76 578.927 1147.91 562.972 1146.72C559.616 1146.47 556.262 1148.66 552.82 1149.54C549.08 1150.53 545.256 1151.36 541.442 1152.21C540.7 1152.37 539.587 1152.09 539.135 1152.43C530.066 1159.38 517.513 1157.14 506.517 1158.05C495.808 1158.95 484.475 1156.79 473.422 1156.28C466.087 1155.92 461.777 1152.73 456.44 1148.45C450.006 1143.28 440.795 1140.2 432.418 1136.94C426.345 1134.66 420.104 1133.07 413.812 1132.19C410.184 1131.65 406.317 1132.96 400.554 1133.71C394.05 1126.81 381.176 1125.76 370.734 1120.99C356.922 1114.67 345.069 1117.65 332.469 1117.92C289.171 1118.85 245.932 1120.2 202.665 1121.35C154.914 1122.61 107.196 1124.14 59.3916 1125C13.4596 1125.84 -32.5723 1125.92 -78.5404 1126.47C-92.8746 1126.65 -107.146 1127.32 -121.455 1127.71C-123.248 1127.75 -125.105 1127.52 -128.024 1127.3L-188.921 82.7899C-176.749 82.8868 -164.581 82.9795 -152.415 83.068C-110.133 83.3032 -67.858 83.3531 -25.5583 83.7653C48.7901 84.5082 123.14 85.3166 197.492 86.1904C201.253 86.2181 204.827 84.2812 208.548 83.3959C210.23 82.94 211.992 82.7467 213.777 82.8219C226.032 83.8379 238.358 85.8431 250.533 85.9278C277.126 86.1215 303.691 85.3335 330.266 84.9488C331.865 84.929 334.27 85.4106 334.919 84.7392C343.925 75.4389 362.678 76.4967 368.945 63.9319C370.139 61.5451 376.563 61.3027 380.3 59.7421C383.14 58.5538 385.371 56.4596 388.251 55.3706C393.137 53.5257 398.132 51.5161 403.436 50.7436C410.686 49.6824 418.268 49.6997 425.704 49.2682C436.839 48.6202 445.674 44.992 453.207 38.4141C456.279 35.7316 462.495 35.4687 467.293 34.1235C470.938 33.1055 474.626 32.1652 478.253 31.1113C478.928 30.9112 479.501 29.9277 479.986 30.0248C490.932 32.1213 497.253 25.225 505.854 22.8301C518.173 19.392 531.095 17.1138 543.908 14.7292C550.344 13.5341 557.186 12.0149 563.685 12.768C571.654 13.641 579.433 16.8079 587.276 19.0422C587.989 19.2448 588.53 20.1821 589.203 20.2746C603.576 22.2255 614.392 33.0124 628.251 34.1451C639.096 35.0354 648.683 35.9843 658.005 41.5523C661.439 43.6381 666.711 43.7228 671.172 44.4338C676.638 45.3018 682.241 46.5358 687.613 46.3832C694.554 46.173 701.325 44.7499 708.166 43.8438C712.103 43.3333 716.085 42.0654 719.971 42.4574C729.568 43.4188 739.155 44.9591 748.702 46.6008C756.302 47.9185 763.795 49.8517 771.372 51.3279C781.42 53.2756 791.465 55.6463 801.586 56.7443C817.249 58.4416 830.561 52.581 844.763 49.3745C856.428 46.7433 868.409 45.2587 880.55 44.94C888.422 44.7433 894.865 43.4734 900.841 39.934C902.759 38.8044 905.545 37.0749 907.302 37.5552C921.469 41.4609 933.391 36.0911 941.762 30.2209C952.415 22.7596 960.43 28.1931 970.072 30.5244C977.059 32.2051 983.831 37.2441 991.674 33.4071C992.885 32.8137 995.627 34.3695 997.674 34.5757C1000.83 34.898 1004.92 36.0047 1007.02 34.8749C1015.85 30.2151 1026.07 33.8369 1035.46 32.8193C1039.55 32.3736 1044.17 34.1227 1048.57 34.7413C1054.17 35.5355 1059.38 36.5467 1065.25 34.6713C1070.2 33.0982 1076.8 34.3954 1082.67 34.6085C1103.24 35.3274 1117.78 27.3846 1129.94 15.513C1136.18 9.4216 1145.71 10.3165 1154.78 10.6649C1158.33 10.8004 1161.87 9.9276 1165.36 10.3142C1170.09 10.8331 1174.74 12.1695 1179.44 13.054C1181.89 13.5109 1185.15 14.719 1186.75 13.939C1198.25 8.32752 1211.62 11.7935 1223.45 12.837C1232.72 13.6421 1239.87 9.94797 1248.43 10.9306C1251.32 11.2549 1254.27 10.6723 1257.21 10.5536C1260.56 10.4225 1263.94 10.3763 1267.29 10.2345C1270.14 10.1221 1273.12 9.30608 1275.8 9.87922C1288.94 12.7293 1300.32 11.4733 1309.76 3.73624C1313.21 0.920538 1317.77 -1.3625 1322.59 3.58068C1322.74 3.76934 1323.03 4.01017 1323.22 4.00748C1340.68 3.58098 1347.55 18.9191 1362.03 23.0114C1365.28 23.925 1368.28 25.7822 1371.19 27.4645C1373.3 28.692 1376.21 30.1477 1376.82 31.8518C1382.17 46.7233 1396.28 57.1349 1406.88 69.3154C1409.25 72.0548 1411.24 74.9748 1413.79 77.6354C1415.08 78.946 1416.66 79.9085 1418.36 80.4217C1444.34 87.9188 1454.65 105.658 1463.19 124.576C1466.85 132.663 1474.65 137.506 1485.37 137.564C1494.8 137.59 1504.15 136.512 1513.58 136.728C1522.25 136.922 1531.15 137.434 1539.64 139.198C1548.8 141.097 1554.76 135.845 1562.79 135.29C1569.86 134.799 1576.38 131.633 1583.38 130.621C1592.82 129.232 1602.52 128.654 1612.15 127.951C1615.35 127.822 1618.57 127.956 1621.8 128.351C1636.79 129.73 1650.75 128.46 1663.39 121.992C1668.02 119.624 1674.04 118.74 1679.64 117.809C1694.71 115.309 1707.02 108.713 1720.22 103.19C1727.97 99.9447 1738.7 100.84 1748.14 100.223C1758.29 99.5563 1768.73 100.061 1778.61 98.6367C1789.03 97.1393 1797.27 99.7546 1804.49 105.833C1810.37 110.779 1815.82 111.606 1823.85 110.124C1838.78 107.366 1849.25 100.21 1859.73 92.2275C1863 89.6958 1869.16 89.4493 1874.17 88.6841C1887.85 86.59 1900.34 82.8787 1909.85 74.4972C1910.78 73.6694 1912.92 73.6856 1914.55 73.4984C1922.12 72.6728 1930.6 73.3389 1936.99 70.7889C1945.47 67.4081 1952.35 61.5981 1959.85 56.6954C1961.95 55.3158 1963.7 53.5387 1966.51 51.2107Z" fill="#546CBF"/>
</svg>
